<?xml version="1.0" encoding="UTF-8"?>
<!--Generator: Apple Native CoreSVG 175-->
<!DOCTYPE svg
PUBLIC "-//W3C//DTD SVG 1.1//EN"
       "http://www.w3.org/Graphics/SVG/1.1/DTD/svg11.dtd">
<svg version="1.1" xmlns="http://www.w3.org/2000/svg" xmlns:xlink="http://www.w3.org/1999/xlink" width="3300" height="2200">
 <!--glyph: "uni1002C3.medium", point size: 100.0, font version: "17.1d1e1", template writer version: "65.1"-->
 <g id="Notes">
  <rect height="2200" id="artboard" style="fill:white;opacity:1" width="3300" x="0" y="0"/>
  <line style="fill:none;stroke:black;opacity:1;stroke-width:0.5;" x1="263" x2="3036" y1="292" y2="292"/>
  <text style="stroke:none;fill:black;font-family:sans-serif;font-size:13;font-weight:bold;" transform="matrix(1 0 0 1 263 322)">Weight/Scale Variations</text>
  <text style="stroke:none;fill:black;font-family:sans-serif;font-size:13;text-anchor:middle;" transform="matrix(1 0 0 1 559.711 322)">Ultralight</text>
  <text style="stroke:none;fill:black;font-family:sans-serif;font-size:13;text-anchor:middle;" transform="matrix(1 0 0 1 856.422 322)">Thin</text>
  <text style="stroke:none;fill:black;font-family:sans-serif;font-size:13;text-anchor:middle;" transform="matrix(1 0 0 1 1153.13 322)">Light</text>
  <text style="stroke:none;fill:black;font-family:sans-serif;font-size:13;text-anchor:middle;" transform="matrix(1 0 0 1 1449.84 322)">Regular</text>
  <text style="stroke:none;fill:black;font-family:sans-serif;font-size:13;text-anchor:middle;" transform="matrix(1 0 0 1 1746.56 322)">Medium</text>
  <text style="stroke:none;fill:black;font-family:sans-serif;font-size:13;text-anchor:middle;" transform="matrix(1 0 0 1 2043.27 322)">Semibold</text>
  <text style="stroke:none;fill:black;font-family:sans-serif;font-size:13;text-anchor:middle;" transform="matrix(1 0 0 1 2339.98 322)">Bold</text>
  <text style="stroke:none;fill:black;font-family:sans-serif;font-size:13;text-anchor:middle;" transform="matrix(1 0 0 1 2636.69 322)">Heavy</text>
  <text style="stroke:none;fill:black;font-family:sans-serif;font-size:13;text-anchor:middle;" transform="matrix(1 0 0 1 2933.4 322)">Black</text>
  <line style="fill:none;stroke:black;opacity:1;stroke-width:0.5;" x1="263" x2="3036" y1="1903" y2="1903"/>
  <g transform="matrix(1 0 0 1 263 1933)">
   <path d="M9.24805 0.830078Q10.8691 0.830078 12.2949 0.214844Q13.7207-0.400391 14.8096-1.49414Q15.8984-2.58789 16.5186-4.01367Q17.1387-5.43945 17.1387-7.05078Q17.1387-8.66211 16.5186-10.0879Q15.8984-11.5137 14.8047-12.6074Q13.7109-13.7012 12.2852-14.3164Q10.8594-14.9316 9.23828-14.9316Q7.62695-14.9316 6.20117-14.3164Q4.77539-13.7012 3.69141-12.6074Q2.60742-11.5137 1.9873-10.0879Q1.36719-8.66211 1.36719-7.05078Q1.36719-5.43945 1.9873-4.01367Q2.60742-2.58789 3.69629-1.49414Q4.78516-0.400391 6.21094 0.214844Q7.63672 0.830078 9.24805 0.830078ZM9.24805-0.654297Q7.91992-0.654297 6.7627-1.14746Q5.60547-1.64062 4.73145-2.51953Q3.85742-3.39844 3.36426-4.56055Q2.87109-5.72266 2.87109-7.05078Q2.87109-8.37891 3.35938-9.54102Q3.84766-10.7031 4.72168-11.582Q5.5957-12.4609 6.75293-12.9541Q7.91016-13.4473 9.23828-13.4473Q10.5762-13.4473 11.7334-12.9541Q12.8906-12.4609 13.7695-11.582Q14.6484-10.7031 15.1465-9.54102Q15.6445-8.37891 15.6445-7.05078Q15.6445-5.72266 15.1514-4.56055Q14.6582-3.39844 13.7842-2.51953Q12.9102-1.64062 11.748-1.14746Q10.5859-0.654297 9.24805-0.654297ZM5.6543-7.05078Q5.6543-6.72852 5.85938-6.52832Q6.06445-6.32812 6.40625-6.32812L8.51562-6.32812L8.51562-4.20898Q8.51562-3.88672 8.71094-3.67676Q8.90625-3.4668 9.23828-3.4668Q9.56055-3.4668 9.77051-3.67676Q9.98047-3.88672 9.98047-4.20898L9.98047-6.32812L12.0898-6.32812Q12.4219-6.32812 12.627-6.52832Q12.832-6.72852 12.832-7.05078Q12.832-7.38281 12.627-7.58789Q12.4219-7.79297 12.0898-7.79297L9.98047-7.79297L9.98047-9.90234Q9.98047-10.2344 9.77051-10.4443Q9.56055-10.6543 9.23828-10.6543Q8.90625-10.6543 8.71094-10.4443Q8.51562-10.2344 8.51562-9.90234L8.51562-7.79297L6.40625-7.79297Q6.06445-7.79297 5.85938-7.58789Q5.6543-7.38281 5.6543-7.05078Z"/>
  </g>
  <g transform="matrix(1 0 0 1 281.867 1933)">
   <path d="M11.709 2.91016Q13.75 2.91016 15.5518 2.12891Q17.3535 1.34766 18.7305-0.0292969Q20.1074-1.40625 20.8887-3.20801Q21.6699-5.00977 21.6699-7.05078Q21.6699-9.0918 20.8887-10.8936Q20.1074-12.6953 18.7305-14.0723Q17.3535-15.4492 15.5469-16.2305Q13.7402-17.0117 11.6992-17.0117Q9.6582-17.0117 7.85645-16.2305Q6.05469-15.4492 4.68262-14.0723Q3.31055-12.6953 2.5293-10.8936Q1.74805-9.0918 1.74805-7.05078Q1.74805-5.00977 2.5293-3.20801Q3.31055-1.40625 4.6875-0.0292969Q6.06445 1.34766 7.86621 2.12891Q9.66797 2.91016 11.709 2.91016ZM11.709 1.25Q9.98047 1.25 8.47656 0.605469Q6.97266-0.0390625 5.83496-1.17676Q4.69727-2.31445 4.05762-3.81836Q3.41797-5.32227 3.41797-7.05078Q3.41797-8.7793 4.05762-10.2832Q4.69727-11.7871 5.83008-12.9297Q6.96289-14.0723 8.4668-14.7119Q9.9707-15.3516 11.6992-15.3516Q13.4277-15.3516 14.9316-14.7119Q16.4355-14.0723 17.5781-12.9297Q18.7207-11.7871 19.3652-10.2832Q20.0098-8.7793 20.0098-7.05078Q20.0098-5.32227 19.3701-3.81836Q18.7305-2.31445 17.5928-1.17676Q16.4551-0.0390625 14.9463 0.605469Q13.4375 1.25 11.709 1.25ZM7.17773-7.05078Q7.17773-6.69922 7.41211-6.47461Q7.64648-6.25 8.01758-6.25L10.8887-6.25L10.8887-3.36914Q10.8887-2.99805 11.1133-2.76855Q11.3379-2.53906 11.6895-2.53906Q12.0605-2.53906 12.29-2.76855Q12.5195-2.99805 12.5195-3.36914L12.5195-6.25L15.4004-6.25Q15.7715-6.25 16.001-6.47461Q16.2305-6.69922 16.2305-7.05078Q16.2305-7.42188 16.001-7.65137Q15.7715-7.88086 15.4004-7.88086L12.5195-7.88086L12.5195-10.752Q12.5195-11.1328 12.29-11.3623Q12.0605-11.5918 11.6895-11.5918Q11.3379-11.5918 11.1133-11.3574Q10.8887-11.123 10.8887-10.752L10.8887-7.88086L8.01758-7.88086Q7.63672-7.88086 7.40723-7.65137Q7.17773-7.42188 7.17773-7.05078Z"/>
  </g>
  <g transform="matrix(1 0 0 1 305.646 1933)">
   <path d="M14.9707 5.66406Q17.0605 5.66406 18.96 5.01465Q20.8594 4.36523 22.4512 3.19336Q24.043 2.02148 25.2197 0.429688Q26.3965-1.16211 27.0459-3.06641Q27.6953-4.9707 27.6953-7.05078Q27.6953-9.14062 27.0459-11.04Q26.3965-12.9395 25.2197-14.5312Q24.043-16.123 22.4512-17.2998Q20.8594-18.4766 18.9551-19.126Q17.0508-19.7754 14.9609-19.7754Q12.8711-19.7754 10.9717-19.126Q9.07227-18.4766 7.48535-17.2998Q5.89844-16.123 4.72168-14.5312Q3.54492-12.9395 2.90039-11.04Q2.25586-9.14062 2.25586-7.05078Q2.25586-4.9707 2.90527-3.06641Q3.55469-1.16211 4.72656 0.429688Q5.89844 2.02148 7.49023 3.19336Q9.08203 4.36523 10.9814 5.01465Q12.8809 5.66406 14.9707 5.66406ZM14.9707 3.84766Q13.1641 3.84766 11.5283 3.2959Q9.89258 2.74414 8.53516 1.74805Q7.17773 0.751953 6.17676-0.610352Q5.17578-1.97266 4.62891-3.6084Q4.08203-5.24414 4.08203-7.05078Q4.08203-8.86719 4.62891-10.5029Q5.17578-12.1387 6.17188-13.501Q7.16797-14.8633 8.52539-15.8594Q9.88281-16.8555 11.5186-17.4023Q13.1543-17.9492 14.9609-17.9492Q16.7773-17.9492 18.4131-17.4023Q20.0488-16.8555 21.4111-15.8594Q22.7734-14.8633 23.7695-13.501Q24.7656-12.1387 25.3174-10.5029Q25.8691-8.86719 25.8691-7.05078Q25.8789-5.24414 25.332-3.6084Q24.7852-1.97266 23.7842-0.610352Q22.7832 0.751953 21.4209 1.74805Q20.0586 2.74414 18.4229 3.2959Q16.7871 3.84766 14.9707 3.84766ZM9.19922-7.05078Q9.19922-6.66992 9.45801-6.4209Q9.7168-6.17188 10.1172-6.17188L14.0625-6.17188L14.0625-2.2168Q14.0625-1.81641 14.3115-1.55762Q14.5605-1.29883 14.9512-1.29883Q15.3516-1.29883 15.6104-1.55273Q15.8691-1.80664 15.8691-2.2168L15.8691-6.17188L19.8242-6.17188Q20.2246-6.17188 20.4785-6.4209Q20.7324-6.66992 20.7324-7.05078Q20.7324-7.46094 20.4785-7.71484Q20.2246-7.96875 19.8242-7.96875L15.8691-7.96875L15.8691-11.9141Q15.8691-12.3242 15.6104-12.583Q15.3516-12.8418 14.9512-12.8418Q14.5605-12.8418 14.3115-12.583Q14.0625-12.3242 14.0625-11.9141L14.0625-7.96875L10.1172-7.96875Q9.70703-7.96875 9.45312-7.71484Q9.19922-7.46094 9.19922-7.05078Z"/>
  </g>
  <text style="stroke:none;fill:black;font-family:sans-serif;font-size:13;font-weight:bold;" transform="matrix(1 0 0 1 263 1953)">Design Variations</text>
  <text style="stroke:none;fill:black;font-family:sans-serif;font-size:13;" transform="matrix(1 0 0 1 263 1971)">Symbols are supported in up to nine weights and three scales.</text>
  <text style="stroke:none;fill:black;font-family:sans-serif;font-size:13;" transform="matrix(1 0 0 1 263 1989)">For optimal layout with text and other symbols, vertically align</text>
  <text style="stroke:none;fill:black;font-family:sans-serif;font-size:13;" transform="matrix(1 0 0 1 263 2007)">symbols with the adjacent text.</text>
  <line style="fill:none;stroke:#00AEEF;stroke-width:0.5;opacity:1.0;" x1="776" x2="776" y1="1919" y2="1933"/>
  <g transform="matrix(1 0 0 1 776 1933)">
   <path d="M3.31055 0.15625Q3.70117 0.15625 3.91602-0.00976562Q4.13086-0.175781 4.26758-0.585938L5.52734-4.0332L11.2891-4.0332L12.5488-0.585938Q12.6855-0.175781 12.9004-0.00976562Q13.1152 0.15625 13.4961 0.15625Q13.8867 0.15625 14.1162-0.0585938Q14.3457-0.273438 14.3457-0.644531Q14.3457-0.869141 14.2383-1.17188L9.6582-13.3691Q9.48242-13.8184 9.17969-14.043Q8.87695-14.2676 8.4082-14.2676Q7.5-14.2676 7.17773-13.3789L2.59766-1.16211Q2.49023-0.859375 2.49023-0.634766Q2.49023-0.263672 2.70996-0.0537109Q2.92969 0.15625 3.31055 0.15625ZM6.00586-5.51758L8.37891-12.0898L8.42773-12.0898L10.8008-5.51758Z"/>
  </g>
  <line style="fill:none;stroke:#00AEEF;stroke-width:0.5;opacity:1.0;" x1="793.197" x2="793.197" y1="1919" y2="1933"/>
  <text style="stroke:none;fill:black;font-family:sans-serif;font-size:13;font-weight:bold;" transform="matrix(1 0 0 1 776 1953)">Margins</text>
  <text style="stroke:none;fill:black;font-family:sans-serif;font-size:13;" transform="matrix(1 0 0 1 776 1971)">Leading and trailing margins on the left and right side of each symbol</text>
  <text style="stroke:none;fill:black;font-family:sans-serif;font-size:13;" transform="matrix(1 0 0 1 776 1989)">can be adjusted by modifying the x-location of the margin guidelines.</text>
  <text style="stroke:none;fill:black;font-family:sans-serif;font-size:13;" transform="matrix(1 0 0 1 776 2007)">Modifications are automatically applied proportionally to all</text>
  <text style="stroke:none;fill:black;font-family:sans-serif;font-size:13;" transform="matrix(1 0 0 1 776 2025)">scales and weights.</text>
  <g transform="matrix(1 0 0 1 1289 1933)">
   <path d="M2.8418 1.86523L4.54102 3.57422Q5.18555 4.22852 5.90332 4.17969Q6.62109 4.13086 7.31445 3.35938L18.0078-8.42773L17.041-9.4043L6.42578 2.27539Q6.16211 2.57812 5.89355 2.61719Q5.625 2.65625 5.27344 2.30469L4.10156 1.14258Q3.75 0.791016 3.79395 0.522461Q3.83789 0.253906 4.14062-0.0195312L15.6152-10.8203L14.6387-11.7871L3.04688-0.898438Q2.30469-0.214844 2.25098 0.498047Q2.19727 1.21094 2.8418 1.86523ZM9.25781-16.3281Q8.94531-16.0254 8.90625-15.6348Q8.86719-15.2441 9.04297-14.9512Q9.21875-14.6777 9.55566-14.541Q9.89258-14.4043 10.3809-14.5215Q11.4746-14.7754 12.5977-14.7314Q13.7207-14.6875 14.7949-13.9844L14.209-12.5293Q13.9551-11.9043 14.0674-11.4404Q14.1797-10.9766 14.5801-10.5664L16.875-8.25195Q17.2363-7.88086 17.5781-7.82227Q17.9199-7.76367 18.3398-7.8418L19.4043-8.03711L20.0684-7.36328L20.0293-6.80664Q20-6.43555 20.1221-6.12305Q20.2441-5.81055 20.6055-5.44922L21.3672-4.70703Q21.7285-4.3457 22.1533-4.33105Q22.5781-4.31641 22.9297-4.66797L25.8398-7.58789Q26.1914-7.93945 26.1816-8.35449Q26.1719-8.76953 25.8105-9.13086L25.0391-9.89258Q24.6875-10.2539 24.3799-10.3857Q24.0723-10.5176 23.7109-10.4883L23.1348-10.4395L22.4902-11.0742L22.7344-12.1973Q22.832-12.6172 22.6953-12.9834Q22.5586-13.3496 22.1191-13.7891L19.9219-15.9766Q18.6719-17.2168 17.2607-17.8369Q15.8496-18.457 14.4189-18.4814Q12.9883-18.5059 11.665-17.959Q10.3418-17.4121 9.25781-16.3281ZM10.752-15.957Q11.6602-16.6211 12.7002-16.9043Q13.7402-17.1875 14.8047-17.085Q15.8691-16.9824 16.8701-16.5137Q17.8711-16.0449 18.7012-15.2051L21.1328-12.793Q21.3086-12.6172 21.3525-12.4512Q21.3965-12.2852 21.3379-12.0312L21.0156-10.5469L22.5195-9.0625L23.5059-9.12109Q23.6914-9.13086 23.7891-9.09668Q23.8867-9.0625 24.0332-8.91602L24.6094-8.33984L22.168-5.89844L21.5918-6.47461Q21.4453-6.62109 21.4062-6.71875Q21.3672-6.81641 21.377-7.01172L21.4453-7.98828L19.9512-9.47266L18.4277-9.21875Q18.1836-9.16992 18.042-9.2041Q17.9004-9.23828 17.7148-9.41406L15.7129-11.416Q15.5176-11.5918 15.4932-11.7529Q15.4688-11.9141 15.5859-12.1875L16.4648-14.2773Q15.293-15.3711 13.8281-15.791Q12.3633-16.2109 10.8398-15.7617Q10.7227-15.7324 10.6885-15.8057Q10.6543-15.8789 10.752-15.957Z"/>
  </g>
  <text style="stroke:none;fill:black;font-family:sans-serif;font-size:13;font-weight:bold;" transform="matrix(1 0 0 1 1289 1953)">Exporting</text>
  <text style="stroke:none;fill:black;font-family:sans-serif;font-size:13;" transform="matrix(1 0 0 1 1289 1971)">Symbols should be outlined when exporting to ensure the</text>
  <text style="stroke:none;fill:black;font-family:sans-serif;font-size:13;" transform="matrix(1 0 0 1 1289 1989)">design is preserved when submitting to Xcode.</text>
  <text id="template-version" style="stroke:none;fill:black;font-family:sans-serif;font-size:13;text-anchor:end;" transform="matrix(1 0 0 1 3036 1933)">Template v.3.0</text>
  <text style="stroke:none;fill:black;font-family:sans-serif;font-size:13;text-anchor:end;" transform="matrix(1 0 0 1 3036 1951)">Requires Xcode 13 or greater</text>
  <text id="descriptive-name" style="stroke:none;fill:black;font-family:sans-serif;font-size:13;text-anchor:end;" transform="matrix(1 0 0 1 3036 1969)">Generated from star.fill</text>
  <text style="stroke:none;fill:black;font-family:sans-serif;font-size:13;text-anchor:end;" transform="matrix(1 0 0 1 3036 1987)">Typeset at 100 points</text>
  <text style="stroke:none;fill:black;font-family:sans-serif;font-size:13;" transform="matrix(1 0 0 1 263 726)">Small</text>
  <text style="stroke:none;fill:black;font-family:sans-serif;font-size:13;" transform="matrix(1 0 0 1 263 1156)">Medium</text>
  <text style="stroke:none;fill:black;font-family:sans-serif;font-size:13;" transform="matrix(1 0 0 1 263 1586)">Large</text>
 </g>
 <g id="Guides">
  <g id="H-reference" style="fill:#27AAE1;stroke:none;" transform="matrix(1 0 0 1 339 696)">
   <path d="M0.993347 0L3.6377 0L29.3282-67.1326L30.0301-67.1326L30.0301-70.459L28.1227-70.459ZM11.6882-24.4797L46.9818-24.4797L46.2311-26.7288L12.4382-26.7288ZM55.1193 0L57.7637 0L30.6381-70.459L29.4327-70.459L29.4327-67.1326Z"/>
  </g>
  <line id="Baseline-S" style="fill:none;stroke:#27AAE1;opacity:1;stroke-width:0.5;" x1="263" x2="3036" y1="696" y2="696"/>
  <line id="Capline-S" style="fill:none;stroke:#27AAE1;opacity:1;stroke-width:0.5;" x1="263" x2="3036" y1="625.541" y2="625.541"/>
  <g id="H-reference" style="fill:#27AAE1;stroke:none;" transform="matrix(1 0 0 1 339 1126)">
   <path d="M0.993347 0L3.6377 0L29.3282-67.1326L30.0301-67.1326L30.0301-70.459L28.1227-70.459ZM11.6882-24.4797L46.9818-24.4797L46.2311-26.7288L12.4382-26.7288ZM55.1193 0L57.7637 0L30.6381-70.459L29.4327-70.459L29.4327-67.1326Z"/>
  </g>
  <line id="Baseline-M" style="fill:none;stroke:#27AAE1;opacity:1;stroke-width:0.5;" x1="263" x2="3036" y1="1126" y2="1126"/>
  <line id="Capline-M" style="fill:none;stroke:#27AAE1;opacity:1;stroke-width:0.5;" x1="263" x2="3036" y1="1055.54" y2="1055.54"/>
  <g id="H-reference" style="fill:#27AAE1;stroke:none;" transform="matrix(1 0 0 1 339 1556)">
   <path d="M0.993347 0L3.6377 0L29.3282-67.1326L30.0301-67.1326L30.0301-70.459L28.1227-70.459ZM11.6882-24.4797L46.9818-24.4797L46.2311-26.7288L12.4382-26.7288ZM55.1193 0L57.7637 0L30.6381-70.459L29.4327-70.459L29.4327-67.1326Z"/>
  </g>
  <line id="Baseline-L" style="fill:none;stroke:#27AAE1;opacity:1;stroke-width:0.5;" x1="263" x2="3036" y1="1556" y2="1556"/>
  <line id="Capline-L" style="fill:none;stroke:#27AAE1;opacity:1;stroke-width:0.5;" x1="263" x2="3036" y1="1485.54" y2="1485.54"/>
  <line id="left-margin-Regular-M" style="fill:none;stroke:#00AEEF;stroke-width:0.5;opacity:1.0;" x1="1385.68" x2="1385.68" y1="1030.79" y2="1150.12"/>
  <line id="right-margin-Regular-M" style="fill:none;stroke:#00AEEF;stroke-width:0.5;opacity:1.0;" x1="1514.01" x2="1514.01" y1="1030.79" y2="1150.12"/>
 </g>
 <g id="Symbols">
  <g id="Black-L" transform="matrix(1 0 0 1 2846.39 1556)">
   <path d="M41.3441 28.3324Q44.5089 30.7637 48.3277 30.1898Q52.1466 29.6158 56.2132 26.5799L87.0109 3.9586L117.771 26.5799Q121.897 29.6158 125.716 30.1898Q129.535 30.7637 132.679 28.3324Q135.823 25.9594 136.486 22.1808Q137.149 18.4021 135.521 13.7166L123.319-22.4125L154.377-44.6573Q158.502-47.592 160.195-51.0454Q161.888-54.4988 160.603-58.236Q159.319-62.0121 155.954-63.7935Q152.59-65.5749 147.55-65.5165L109.524-65.1984L97.9558-101.625Q96.4087-106.426 93.6776-109.078Q90.9466-111.73 87.0109-111.73Q83.0764-111.73 80.3558-109.078Q77.6352-106.426 76.0672-101.625L64.4995-65.1984L26.4148-65.5165Q21.454-65.5749 18.079-63.7935Q14.704-62.0121 13.4201-58.2944Q12.0766-54.4988 13.8278-51.0454Q15.5791-47.592 19.6456-44.6573L50.7042-22.4125L38.5015 13.7166Q36.874 18.4021 37.5663 22.1808Q38.2586 25.9594 41.3441 28.3324Z"/>
  </g>
  <g id="Heavy-L" transform="matrix(1 0 0 1 2550.75 1556)">
   <path d="M40.9162 27.7152Q43.7808 29.9055 47.2451 29.3718Q50.7093 28.8382 54.472 26.0245L85.9327 2.92609L117.379 26.0245Q121.192 28.8382 124.656 29.3718Q128.12 29.9055 130.955 27.7152Q133.789 25.5695 134.384 22.1454Q134.978 18.7214 133.469 14.3624L121.034-22.5708L152.76-45.3197Q156.568-48.0228 158.12-51.1555Q159.673-54.2881 158.515-57.6663Q157.363-61.0646 154.303-62.675Q151.243-64.2854 146.57-64.2408L107.699-63.936L95.8677-101.144Q94.4385-105.586 91.9624-108.002Q89.4862-110.418 85.9327-110.418Q82.3848-110.418 79.9237-108.002Q77.4625-105.586 76.0033-101.144L64.1724-63.936L25.2565-64.2408Q20.6587-64.2854 17.5835-62.675Q14.5082-61.0646 13.3561-57.7109Q12.1539-54.2881 13.7509-51.1555Q15.348-48.0228 19.1106-45.3197L50.8371-22.5708L38.4023 14.3624Q36.8927 18.7214 37.5095 22.1454Q38.1262 25.5695 40.9162 27.7152Z"/>
  </g>
  <g id="Bold-L" transform="matrix(1 0 0 1 2255.41 1556)">
   <path d="M40.3786 26.9097Q42.8593 28.7928 45.8706 28.3203Q48.8819 27.8478 52.2458 25.3256L84.5659 1.61315L116.895 25.3256Q120.301 27.8478 123.312 28.3203Q126.324 28.7928 128.767 26.9097Q131.209 25.0556 131.723 22.0845Q132.237 19.1134 130.881 15.1839L118.154-22.7854L150.74-46.1865Q154.133-48.5904 155.498-51.3161Q156.862-54.0418 155.866-56.9593Q154.883-59.8815 152.214-61.2806Q149.545-62.6797 145.356-62.6505L105.395-62.3686L93.2187-100.582Q91.9429-104.556 89.7893-106.666Q87.6356-108.775 84.5659-108.775Q81.5094-108.775 79.3747-106.666Q77.2399-104.556 75.9263-100.582L63.7503-62.3686L23.76-62.6505Q19.6379-62.6797 16.9502-61.2806Q14.2625-59.8815 13.2792-56.9885Q12.2537-54.0418 13.6475-51.3161Q15.0413-48.5904 18.4049-46.1865L50.9911-22.7854L38.2644 15.1839Q36.9083 19.1134 37.4365 22.0845Q37.9647 25.0556 40.3786 26.9097Z"/>
  </g>
  <g id="Semibold-L" transform="matrix(1 0 0 1 1959.63 1556)">
   <path d="M40.008 26.3544Q42.2241 28.0257 44.9231 27.5954Q47.6221 27.1651 50.7111 24.8438L83.6237 0.708016L116.561 24.8438Q119.687 27.1651 122.386 27.5954Q125.085 28.0257 127.258 26.3544Q129.431 24.7014 129.889 22.0425Q130.347 19.3837 129.096 15.7502L116.168-22.9333L149.347-46.7841Q152.455-48.9817 153.69-51.4269Q154.925-53.872 154.04-56.472Q153.173-59.0659 150.774-60.3193Q148.375-61.5727 144.519-61.5541L103.806-61.288L91.3924-100.194Q90.2225-103.846 88.2912-105.744Q86.3599-107.642 83.6237-107.642Q80.9059-107.642 78.9962-105.744Q77.0865-103.846 75.8733-100.194L63.4593-61.288L22.7284-61.5541Q18.9342-61.5727 16.5136-60.3193Q14.093-59.0659 13.2262-56.4905Q12.3225-53.872 13.5762-51.4269Q14.8299-48.9817 17.9185-46.7841L51.0973-22.9333L38.1694 15.7502Q36.9191 19.3837 37.3862 22.0425Q37.8534 24.7014 40.008 26.3544Z"/>
  </g>
  <g id="Medium-L" transform="matrix(1 0 0 1 1663.64 1556)">
   <path d="M39.727 25.9333Q41.7424 27.4441 44.2046 27.0458Q46.6669 26.6474 49.5474 24.4785L82.9093 0.0217057L116.308 24.4785Q119.221 26.6474 121.683 27.0458Q124.146 27.4441 126.114 25.9333Q128.082 24.4327 128.498 22.0107Q128.914 19.5886 127.743 16.1796L114.663-23.0454L148.291-47.2372Q151.182-49.2784 152.319-51.5108Q153.456-53.7432 152.655-56.1024Q151.876-58.4475 149.682-59.5904Q147.488-60.7334 143.884-60.7229L102.602-60.4687L90.0077-99.9006Q88.918-103.308 87.1553-105.045Q85.3926-106.782 82.9093-106.782Q80.4482-106.782 78.7092-105.045Q76.9701-103.308 75.8331-99.9006L63.2387-60.4687L21.9461-60.7229Q18.4006-60.7334 16.1826-59.5904Q13.9646-58.4475 13.186-56.1129Q12.3747-53.7432 13.5221-51.5108Q14.6695-49.2784 17.5496-47.2372L51.1778-23.0454L38.0974 16.1796Q36.9272 19.5886 37.3481 22.0107Q37.769 24.4327 39.727 25.9333Z"/>
  </g>
  <g id="Regular-L" transform="matrix(1 0 0 1 1367.85 1556)">
   <path d="M39.3605 25.3841Q41.1141 26.6854 43.2675 26.3288Q45.421 25.9722 48.0295 24.002L81.9774-0.873482L115.978 24.002Q118.614 25.9722 120.767 26.3288Q122.921 26.6854 124.622 25.3841Q126.323 24.0824 126.684 21.9692Q127.044 19.8559 125.979 16.7397L112.699-23.1917L146.914-47.8282Q149.522-49.6654 150.531-51.6204Q151.54-53.5753 150.849-55.6204Q150.185-57.6409 148.258-58.6397Q146.331-59.6386 143.056-59.6386L101.031-59.4001L88.2015-99.5174Q87.2164-102.606 85.6736-104.134Q84.1308-105.662 81.9774-105.662Q79.8514-105.662 78.3349-104.134Q76.8183-102.606 75.7807-99.5174L62.9509-59.4001L20.9258-59.6386Q17.7046-59.6386 15.7508-58.6397Q13.797-57.6409 13.1336-55.6204Q12.4427-53.5753 13.4516-51.6204Q14.4604-49.6654 17.0685-47.8282L51.2828-23.1917L38.0034 16.7397Q36.9379 19.8559 37.2984 21.9692Q37.6589 24.0824 39.3605 25.3841Z"/>
  </g>
  <g id="Light-L" transform="matrix(1 0 0 1 1072.28 1556)">
   <path d="M38.9407 24.5636Q40.3506 25.5974 42.1032 25.3555Q43.8559 25.1135 46.0447 23.4485L80.8323-1.99963L115.653 23.4485Q117.888 25.1135 119.641 25.3555Q121.394 25.5974 122.771 24.5636Q124.148 23.5289 124.479 21.8165Q124.811 20.1041 123.898 17.4458L110.39-23.4588L145.406-48.725Q147.595-50.2763 148.384-51.8876Q149.174-53.499 148.616-55.124Q148.105-56.7629 146.54-57.6186Q144.976-58.4743 142.217-58.4743L99.1609-58.2931L85.9685-99.3455Q85.136-101.957 83.8605-103.179Q82.585-104.402 80.8323-104.402Q79.126-104.402 77.8672-103.179Q76.6083-101.957 75.7425-99.3455L62.5501-58.2931L19.4944-58.4743Q16.7695-58.4743 15.1879-57.6186Q13.6062-56.7629 13.0954-55.124Q12.5383-53.499 13.3277-51.8876Q14.117-50.2763 16.3051-48.725L51.3209-23.4588L37.8126 17.4458Q36.8997 20.1041 37.2315 21.8165Q37.5633 23.5289 38.9407 24.5636Z"/>
  </g>
  <g id="Thin-L" transform="matrix(1 0 0 1 777.069 1556)">
   <path d="M38.3856 23.4783Q39.3408 24.1585 40.5634 24.0681Q41.7859 23.9778 43.4195 22.7165L79.3179-3.48904L115.224 22.7165Q116.929 23.9778 118.152 24.0681Q119.374 24.1585 120.323 23.4783Q121.27 22.797 121.564 21.6147Q121.858 20.4324 121.147 18.3797L107.336-23.8121L143.412-49.9112Q145.046-51.0842 145.545-52.2411Q146.044-53.398 145.662-54.4675Q145.353-55.6018 144.268-56.2681Q143.183-56.9344 141.106-56.9344L96.6872-56.8292L83.0151-99.1182Q82.3845-101.098 81.4624-101.917Q80.5404-102.736 79.3179-102.736Q78.1667-102.736 77.2486-101.917Q76.3305-101.098 75.6921-99.1182L62.02-56.8292L17.6013-56.9344Q15.5329-56.9344 14.4434-56.2681Q13.3539-55.6018 13.0449-54.4675Q12.6647-53.398 13.1637-52.2411Q13.6628-51.0842 15.2953-49.9112L51.3714-23.8121L37.5603 18.3797Q36.8492 20.4324 37.1431 21.6147Q37.437 22.797 38.3856 23.4783Z"/>
  </g>
  <g id="Ultralight-L" transform="matrix(1 0 0 1 481.127 1556)">
   <path d="M38.1012 22.9225Q38.8236 23.4215 39.7746 23.4088Q40.7256 23.3961 42.075 22.3416L78.5422-4.25191L115.004 22.3416Q116.438 23.3961 117.389 23.4088Q118.34 23.4215 119.069 22.9225Q119.796 22.422 120.071 21.5113Q120.345 20.6005 119.738 18.858L105.771-23.993L142.391-50.5188Q143.74-51.498 144.09-52.4222Q144.441-53.3463 144.15-54.1313Q143.944-55.007 143.105-55.5763Q142.265-56.1457 140.537-56.1457L95.4202-56.0793L81.5024-99.0018Q80.9752-100.659 80.2342-101.271Q79.4932-101.883 78.5422-101.883Q77.6754-101.883 76.9318-101.271Q76.1883-100.659 75.6662-99.0018L61.7484-56.0793L16.6316-56.1457Q14.8995-56.1457 14.0621-55.5763Q13.2246-55.007 13.0191-54.1313Q12.7294-53.3463 13.0798-52.4222Q13.4302-51.498 14.7781-50.5188L51.3973-23.993L37.431 18.858Q36.8234 20.6005 37.0978 21.5113Q37.3722 22.422 38.1012 22.9225Z"/>
  </g>
  <g id="Black-M" transform="matrix(1 0 0 1 2865.22 1126)">
   <path d="M32.342 14.4338Q35.0051 16.4884 38.2143 16.0247Q41.4234 15.5609 44.7783 13.0592L68.1825-4.13405L91.5352 13.0592Q94.9469 15.5609 98.156 16.0247Q101.365 16.4884 104.023 14.4338Q106.681 12.4363 107.249 9.25832Q107.818 6.08034 106.477 2.23168L97.1912-25.1998L120.788-42.0858Q124.2-44.5197 125.602-47.4243Q127.005-50.3289 125.918-53.476Q124.831-56.6744 122.011-58.1821Q119.192-59.6898 115.042-59.6327L86.1675-59.3826L77.3825-87.0586Q76.1031-91.0218 73.8045-93.2379Q71.5059-95.4541 68.1825-95.4541Q64.8589-95.4541 62.5631-93.2379Q60.2672-91.0218 58.9823-87.0586L50.1973-59.3826L21.2662-59.6327Q17.1781-59.6898 14.3562-58.1821Q11.5342-56.6744 10.4469-53.5331Q9.30281-50.3289 10.7623-47.4243Q12.2218-44.5197 15.5767-42.0858L39.1737-25.1998L29.8882 2.23168Q28.5465 6.08034 29.144 9.25832Q29.7414 12.4363 32.342 14.4338Z"/>
  </g>
  <g id="Heavy-M" transform="matrix(1 0 0 1 2569.45 1126)">
   <path d="M31.9623 13.9062Q34.3639 15.7498 37.2633 15.3148Q40.1627 14.8799 43.2592 12.5673L67.2341-5.0395L91.1818 12.5673Q94.3242 14.8799 97.2236 15.3148Q100.123 15.7498 102.508 13.9062Q104.893 12.1061 105.398 9.23787Q105.902 6.36961 104.662 2.79789L95.1705-25.3299L119.346-42.6506Q122.487-44.8846 123.772-47.5073Q125.057-50.13 124.083-52.9648Q123.11-55.8292 120.555-57.1829Q118-58.5366 114.161-58.493L84.556-58.2506L75.5473-86.6044Q74.3691-90.2611 72.295-92.2746Q70.2208-94.2882 67.2341-94.2882Q64.2497-94.2882 62.1837-92.2746Q60.1178-90.2611 58.9233-86.6044L49.9145-58.2506L20.2659-58.493Q16.4869-58.5366 13.9237-57.1829Q11.3604-55.8292 10.3879-53.0085Q9.36952-50.13 10.6986-47.5073Q12.0276-44.8846 15.1241-42.6506L39.3-25.3299L29.8088 2.79789Q28.5684 6.36961 29.0946 9.23787Q29.6208 12.1061 31.9623 13.9062Z"/>
  </g>
  <g id="Bold-M" transform="matrix(1 0 0 1 2273.8 1126)">
   <path d="M31.5377 13.3159Q33.6465 14.9235 36.1995 14.5208Q38.7524 14.1181 41.5599 12.0171L66.1732-6.05238L90.7865 12.0171Q93.6276 14.1181 96.1806 14.5208Q98.7335 14.9235 100.814 13.3159Q102.894 11.7368 103.326 9.215Q103.759 6.6932 102.632 3.43128L92.9101-25.4754L117.734-43.2825Q120.57-45.2926 121.724-47.6001Q122.879-49.9076 122.03-52.393Q121.185-54.8837 118.926-56.0652Q116.666-57.2467 113.176-57.2182L82.7533-56.9844L73.4942-86.0963Q72.4294-89.4101 70.6063-91.1971Q68.7832-92.984 66.1732-92.984Q63.5682-92.984 61.7594-91.1971Q59.9506-89.4101 58.8572-86.0963L49.5982-56.9844L19.147-57.2182Q15.7137-57.2467 13.4399-56.0652Q11.166-54.8837 10.3219-52.4216Q9.44413-49.9076 10.6272-47.6001Q11.8103-45.2926 14.6177-43.2825L39.4414-25.4754L29.7199 3.43128Q28.5928 6.6932 29.0393 9.215Q29.4859 11.7368 31.5377 13.3159Z"/>
  </g>
  <g id="Semibold-M" transform="matrix(1 0 0 1 1977.82 1126)">
   <path d="M31.2449 12.909Q33.152 14.3539 35.4661 13.9734Q37.7802 13.593 40.3884 11.6378L65.4418-6.75066L90.514 11.6378Q93.1474 13.593 95.4615 13.9734Q97.7756 14.3539 99.6458 12.909Q101.516 11.4822 101.898 9.19923Q102.281 6.91628 101.232 3.86793L91.3517-25.5758L116.622-43.7181Q119.248-45.574 120.313-47.6641Q121.377-49.7542 120.614-51.9988Q119.859-54.2318 117.803-55.2946Q115.747-56.3575 112.497-56.3393L81.5105-56.1115L72.0789-85.746Q71.0922-88.8235 69.4422-90.4542Q67.7922-92.0849 65.4418-92.0849Q63.0984-92.0849 61.4669-90.4542Q59.8354-88.8235 58.8117-85.746L49.3801-56.1115L18.3756-56.3393Q15.1807-56.3575 13.1063-55.2946Q11.032-54.2318 10.2764-52.017Q9.49557-49.7542 10.5781-47.6641Q11.6605-45.574 14.2687-43.7181L39.5389-25.5758L29.6586 3.86793Q28.6096 6.91628 29.0013 9.19923Q29.3929 11.4822 31.2449 12.909Z"/>
  </g>
  <g id="Medium-M" transform="matrix(1 0 0 1 1681.66 1126)">
   <path d="M31.0229 12.6005Q32.777 13.922 34.91 13.5584Q37.043 13.1948 39.5002 11.3501L64.8872-7.28012L90.3073 11.3501Q92.7833 13.1948 94.9163 13.5584Q97.0493 13.922 98.7602 12.6005Q100.471 11.2891 100.816 9.18727Q101.161 7.08543 100.171 4.19902L90.1702-25.6518L115.779-44.0483Q118.246-45.7873 119.242-47.7126Q120.238-49.6379 119.541-51.6999Q118.853-53.7375 116.951-54.7104Q115.05-55.6832 111.982-55.6729L80.5682-55.4496L71.0057-85.4804Q70.0783-88.3787 68.5595-89.8909Q67.0408-91.4032 64.8872-91.4032Q62.7422-91.4032 61.2451-89.8909Q59.748-88.3787 58.7772-85.4804L49.2148-55.4496L17.7907-55.6729Q14.7765-55.6832 12.8534-54.7104Q10.9304-53.7375 10.2419-51.7102Q9.53457-49.6379 10.5408-47.7126Q11.547-45.7873 14.004-44.0483L39.6128-25.6518L29.6122 4.19902Q28.6224 7.08543 28.9724 9.18727Q29.3224 11.2891 31.0229 12.6005Z"/>
  </g>
  <g id="Regular-M" transform="matrix(1 0 0 1 1385.68 1126)">
   <path d="M30.7334 12.198Q32.2879 13.3586 34.1847 13.017Q36.0814 12.6754 38.3416 10.975L64.1638-7.97072L90.0378 10.975Q92.3084 12.6754 94.2052 13.017Q96.1019 13.3586 97.6049 12.198Q99.1078 11.0373 99.4034 9.17167Q99.6991 7.30605 98.7866 4.63088L88.629-25.7511L114.679-44.4791Q116.94-46.0655 117.846-47.7759Q118.753-49.4862 118.141-51.3101Q117.54-53.0929 115.841-53.9483Q114.141-54.8037 111.31-54.8037L79.339-54.5862L69.6059-85.134Q68.7557-87.7985 67.4082-89.1562Q66.0606-90.5139 64.1638-90.5139Q62.2775-90.5139 60.9558-89.1562Q59.6341-87.7985 58.7322-85.134L48.9991-54.5862L17.0278-54.8037Q14.2493-54.8037 12.5236-53.9483Q10.7978-53.0929 10.1969-51.3101Q9.58544-49.4862 10.4921-47.7759Q11.3988-46.0655 13.6588-44.4791L39.7092-25.7511L29.5516 4.63088Q28.6391 7.30605 28.9347 9.17167Q29.2304 11.0373 30.7334 12.198Z"/>
  </g>
  <g id="Light-M" transform="matrix(1 0 0 1 1089.98 1126)">
   <path d="M30.3571 11.4624Q31.6034 12.3831 33.1408 12.1443Q34.6782 11.9055 36.562 10.4788L63.1372-8.98036L89.7469 10.4788Q91.6581 11.9055 93.1955 12.1443Q94.7329 12.3831 95.9453 11.4624Q97.1572 10.5411 97.4271 9.03483Q97.697 7.52857 96.9214 5.26392L86.5585-25.9906L113.328-45.2832Q115.211-46.6132 115.921-48.0155Q116.631-49.4178 116.139-50.865Q115.675-52.3057 114.3-53.0328Q112.926-53.7598 110.557-53.7598L77.6621-53.5938L67.6039-84.9799Q66.8905-87.2167 65.7826-88.3007Q64.6747-89.3847 63.1372-89.3847Q61.6272-89.3847 60.5365-88.3007Q59.4458-87.2167 58.698-84.9799L48.6398-53.5938L15.7445-53.7598Q13.411-53.7598 12.0189-53.0328Q10.6268-52.3057 10.1627-50.865Q9.67111-49.4178 10.381-48.0155Q11.0909-46.6132 12.9743-45.2832L39.7434-25.9906L29.3805 5.26392Q28.6049 7.52857 28.8748 9.03483Q29.1447 10.5411 30.3571 11.4624Z"/>
  </g>
  <g id="Thin-M" transform="matrix(1 0 0 1 794.618 1126)">
   <path d="M29.8594 10.4894Q30.6981 11.0931 31.7602 10.9902Q32.8224 10.8873 34.2085 9.82253L61.7795-10.3157L89.3621 9.82253Q90.798 10.8873 91.8602 10.9902Q92.9223 11.0931 93.7503 10.4894Q94.5774 9.88483 94.8133 8.85385Q95.0492 7.82286 94.4545 6.10116L83.8201-26.3073L111.54-46.3467Q112.926-47.3375 113.376-48.3324Q113.825-49.3273 113.491-50.2764Q113.208-51.2647 112.264-51.822Q111.319-52.3793 109.562-52.3793L75.4443-52.2813L64.956-84.7761Q64.4237-86.4471 63.6326-87.1691Q62.8416-87.8912 61.7795-87.8912Q60.7672-87.8912 59.982-87.1691Q59.1967-86.4471 58.6528-84.7761L48.1645-52.2813L14.0472-52.3793Q12.3023-52.3793 11.3514-51.822Q10.4006-51.2647 10.1174-50.2764Q9.78442-49.3273 10.2341-48.3324Q10.6837-47.3375 12.069-46.3467L39.7886-26.3073L29.1543 6.10116Q28.5596 7.82286 28.7955 8.85385Q29.0314 9.88483 29.8594 10.4894Z"/>
  </g>
  <g id="Ultralight-M" transform="matrix(1 0 0 1 498.596 1126)">
   <path d="M29.6044 9.99101Q30.2344 10.4323 31.0531 10.399Q31.8718 10.3657 33.003 9.48639L61.084-10.9997L89.165 9.48639Q90.3575 10.3657 91.1762 10.399Q91.9949 10.4323 92.626 9.99101Q93.256 9.5487 93.4745 8.76115Q93.693 7.97359 93.191 6.53L82.4176-26.4695L110.624-46.8914Q111.755-47.7085 112.072-48.4947Q112.388-49.281 112.135-49.975Q111.945-50.7315 111.22-51.2018Q110.496-51.6721 109.052-51.6721L74.3083-51.609L63.5998-84.6717Q63.1601-86.0529 62.5314-86.5896Q61.9027-87.1262 61.084-87.1262Q60.3267-87.1262 59.6979-86.5896Q59.0692-86.0529 58.6296-84.6717L47.921-51.609L13.1778-51.6721Q11.7344-51.6721 11.0095-51.2018Q10.2847-50.7315 10.0942-49.975Q9.84245-49.281 10.1588-48.4947Q10.4751-47.7085 11.6053-46.8914L39.8118-26.4695L29.0384 6.53Q28.5364 7.97359 28.7549 8.76115Q28.9734 9.5487 29.6044 9.99101Z"/>
  </g>
  <g id="Black-S" transform="matrix(1 0 0 1 2879.74 696)">
   <path d="M25.4395 3.80859Q27.5879 5.46875 30.1758 5.10254Q32.7637 4.73633 35.4492 2.73438L53.6621-10.6445L71.8262 2.73438Q74.5605 4.73633 77.1484 5.10254Q79.7363 5.46875 81.8848 3.80859Q84.0332 2.19727 84.4971-0.366211Q84.9609-2.92969 83.8867-6.00586L76.6602-27.3438L95.0195-40.4785Q97.7539-42.4316 98.877-44.7754Q100-47.1191 99.1211-49.6582Q98.2422-52.2461 95.9717-53.4668Q93.7012-54.6875 90.3809-54.6387L67.9199-54.4434L61.084-75.9766Q60.0586-79.1504 58.2031-80.9326Q56.3477-82.7148 53.6621-82.7148Q50.9766-82.7148 49.1211-80.9326Q47.2656-79.1504 46.2402-75.9766L39.4043-54.4434L16.8945-54.6387Q13.623-54.6875 11.3525-53.4668Q9.08203-52.2461 8.20312-49.707Q7.27539-47.1191 8.44727-44.7754Q9.61914-42.4316 12.3047-40.4785L30.6641-27.3438L23.4375-6.00586Q22.3633-2.92969 22.8516-0.366211Q23.3398 2.19727 25.4395 3.80859Z"/>
  </g>
  <g id="Heavy-S" transform="matrix(1 0 0 1 2583.71 696)">
   <path d="M25.1629 3.45134Q27.1269 4.96167 29.4958 4.60699Q31.8648 4.2523 34.3774 2.37712L52.9822-11.2899L71.5611 2.37712Q74.1111 4.2523 76.48 4.60699Q78.8489 4.96167 80.8015 3.45134Q82.754 1.9783 83.166-0.366211Q83.578-2.71072 82.5729-5.6025L75.1965-27.4244L93.9593-40.8588Q96.5093-42.6737 97.5574-44.8157Q98.6055-46.9578 97.8073-49.2779Q97.0091-51.6238 94.923-52.7292Q92.8368-53.8347 89.724-53.7974L66.756-53.6021L59.7702-75.6078Q58.814-78.5742 57.1198-80.2181Q55.4257-81.862 52.9822-81.862Q50.5386-81.862 48.8503-80.2181Q47.1619-78.5742 46.1941-75.6078L39.2084-53.6021L16.2031-53.7974Q13.139-53.8347 11.0471-52.7292Q8.95526-51.6238 8.15703-49.3152Q7.32149-46.9578 8.40693-44.8157Q9.49237-42.6737 12.0051-40.8588L30.7678-27.4244L23.3914-5.6025Q22.3863-2.71072 22.817-0.366211Q23.2476 1.9783 25.1629 3.45134Z"/>
  </g>
  <g id="Bold-S" transform="matrix(1 0 0 1 2287.76 696)">
   <path d="M24.8535 3.05176Q26.6113 4.39453 28.7354 4.05273Q30.8594 3.71094 33.1787 1.97754L52.2217-12.0117L71.2646 1.97754Q73.6084 3.71094 75.7324 4.05273Q77.8564 4.39453 79.5898 3.05176Q81.3232 1.7334 81.6772-0.366211Q82.0312-2.46582 81.1035-5.15137L73.5596-27.5146L92.7734-41.2842Q95.1172-42.9443 96.0815-44.8608Q97.0459-46.7773 96.3379-48.8525Q95.6299-50.9277 93.75-51.9043Q91.8701-52.8809 88.9893-52.8564L65.4541-52.6611L58.3008-75.1953Q57.4219-77.9297 55.9082-79.4189Q54.3945-80.9082 52.2217-80.9082Q50.0488-80.9082 48.5474-79.4189Q47.0459-77.9297 46.1426-75.1953L38.9893-52.6611L15.4297-52.8564Q12.5977-52.8809 10.7056-51.9043Q8.81348-50.9277 8.10547-48.877Q7.37305-46.7773 8.36182-44.8608Q9.35059-42.9443 11.6699-41.2842L30.8838-27.5146L23.3398-5.15137Q22.4121-2.46582 22.7783-0.366211Q23.1445 1.7334 24.8535 3.05176Z"/>
  </g>
  <g id="Semibold-S" transform="matrix(1 0 0 1 1991.57 696)">
   <path d="M24.6402 2.77627Q26.2559 4.00352 28.211 3.67061Q30.1662 3.3377 32.3522 1.70205L51.6974-12.5094L71.0603 1.70205Q73.2618 3.3377 75.217 3.67061Q77.1722 4.00352 78.7545 2.77627Q80.3368 1.56455 80.6508-0.366211Q80.9648-2.29697 80.0904-4.84033L72.431-27.5769L91.9559-41.5774Q94.1574-43.131 95.064-44.8919Q95.9706-46.6529 95.3248-48.5593Q94.679-50.4479 92.9413-51.3355Q91.2036-52.2232 88.4827-52.2077L64.5565-52.0124L57.2877-74.9109Q56.4621-77.4854 55.0729-78.868Q53.6836-80.2506 51.6974-80.2506Q49.7111-80.2506 48.3385-78.868Q46.9659-77.4854 46.107-74.9109L38.8382-52.0124L14.8965-52.2077Q12.2244-52.2232 10.4701-51.3355Q8.71572-50.4479 8.06992-48.5748Q7.40859-46.6529 8.33071-44.8919Q9.25283-43.131 11.4389-41.5774L30.9638-27.5769L23.3043-4.84033Q22.4299-2.29697 22.7517-0.366211Q23.0734 1.56455 24.6402 2.77627Z"/>
  </g>
  <g id="Medium-S" transform="matrix(1 0 0 1 1695.26 696)">
   <path d="M24.4785 2.56738Q25.9863 3.70703 27.8135 3.38086Q29.6406 3.05469 31.7256 1.49316L51.2998-12.8867L70.9053 1.49316Q72.999 3.05469 74.8262 3.38086Q76.6533 3.70703 78.1211 2.56738Q79.5889 1.43652 79.8726-0.366211Q80.1562-2.16895 79.3223-4.60449L71.5752-27.624L91.3359-41.7998Q93.4297-43.2725 94.2925-44.9155Q95.1553-46.5586 94.5566-48.3369Q93.958-50.084 92.3281-50.9043Q90.6982-51.7246 88.0986-51.7158L63.876-51.5205L56.5195-74.6953Q55.7344-77.1484 54.4395-78.4502Q53.1445-79.752 51.2998-79.752Q49.4551-79.752 48.1802-78.4502Q46.9053-77.1484 46.0801-74.6953L38.7236-51.5205L14.4922-51.7158Q11.9414-51.7246 10.2915-50.9043Q8.6416-50.084 8.04297-48.3457Q7.43555-46.5586 8.30713-44.9155Q9.17871-43.2725 11.2637-41.7998L31.0244-27.624L23.2773-4.60449Q22.4434-2.16895 22.7314-0.366211Q23.0195 1.43652 24.4785 2.56738Z"/>
  </g>
  <g id="Regular-S" transform="matrix(1 0 0 1 1399.06 696)">
   <path d="M24.2676 2.29492Q25.6348 3.32031 27.2949 3.00293Q28.9551 2.68555 30.9082 1.2207L50.7812-13.3789L70.7031 1.2207Q72.6562 2.68555 74.3164 3.00293Q75.9766 3.32031 77.2949 2.29492Q78.6133 1.26953 78.8574-0.366211Q79.1016-2.00195 78.3203-4.29688L70.459-27.6855L90.5273-42.0898Q92.4805-43.457 93.2861-44.9463Q94.0918-46.4355 93.5547-48.0469Q93.0176-49.6094 91.5283-50.3418Q90.0391-51.0742 87.5977-51.0742L62.9883-50.8789L55.5176-74.4141Q54.7852-76.709 53.6133-77.9053Q52.4414-79.1016 50.7812-79.1016Q49.1211-79.1016 47.9736-77.9053Q46.8262-76.709 46.0449-74.4141L38.5742-50.8789L13.9648-51.0742Q11.5723-51.0742 10.0586-50.3418Q8.54492-49.6094 8.00781-48.0469Q7.4707-46.4355 8.27637-44.9463Q9.08203-43.457 11.0352-42.0898L31.1035-27.6855L23.2422-4.29688Q22.4609-2.00195 22.7051-0.366211Q22.9492 1.26953 24.2676 2.29492Z"/>
  </g>
  <g id="Light-S" transform="matrix(1 0 0 1 1103.25 696)">
   <path d="M23.9347 1.64413Q25.0292 2.45743 26.3715 2.23096Q27.7138 2.0045 29.334 0.781759L49.8731-14.2721L70.4458 0.781759Q72.081 2.0045 73.4233 2.23096Q74.7655 2.45743 75.8268 1.64413Q76.8878 0.830587 77.1091-0.487264Q77.3305-1.80511 76.6703-3.73688L68.6274-27.8974L89.3316-42.8012Q90.9518-43.9415 91.5834-45.1583Q92.215-46.375 91.7837-47.6532Q91.3676-48.9131 90.166-49.5319Q88.9643-50.1508 86.9316-50.1508L61.5049-50.001L53.7465-74.2778Q53.1352-76.1943 52.1753-77.1484Q51.2154-78.1026 49.8731-78.1026Q48.5458-78.1026 47.6027-77.1484Q46.6596-76.1943 46.0147-74.2778L38.2563-50.001L12.8296-50.1508Q10.8307-50.1508 9.61215-49.5319Q8.39361-48.9131 7.97755-47.6532Q7.54649-46.375 8.17808-45.1583Q8.80966-43.9415 10.4296-42.8012L31.1338-27.8974L23.0909-3.73688Q22.4307-1.80511 22.6521-0.487264Q22.8734 0.830587 23.9347 1.64413Z"/>
  </g>
  <g id="Thin-S" transform="matrix(1 0 0 1 807.733 696)">
   <path d="M23.4944 0.783416Q24.2284 1.31619 25.1502 1.20997Q26.0721 1.10375 27.252 0.201219L48.672-15.4533L70.1054 0.201219Q71.3202 1.10375 72.242 1.20997Q73.1638 1.31619 73.885 0.783416Q74.6056 0.250047 74.7969-0.647366Q74.9882-1.54478 74.4881-2.99624L66.205-28.1776L87.75-43.7419Q88.93-44.5822 89.3314-45.4386Q89.7327-46.295 89.4413-47.1325Q89.1854-47.9921 88.3641-48.4608Q87.5429-48.9295 86.0507-48.9295L59.5429-48.8399L51.4042-74.0975Q50.9529-75.5135 50.2734-76.1475Q49.5938-76.7814 48.672-76.7814Q47.785-76.7814 47.1122-76.1475Q46.4393-75.5135 45.9746-74.0975L37.8359-48.8399L11.3281-48.9295Q9.84989-48.9295 9.02169-48.4608Q8.19348-47.9921 7.93752-47.1325Q7.64672-46.295 8.04808-45.4386Q8.44943-44.5822 9.62879-43.7419L31.1738-28.1776L22.8907-2.99624Q22.3906-1.54478 22.5819-0.647366Q22.7732 0.250047 23.4944 0.783416Z"/>
  </g>
  <g id="Ultralight-S" transform="matrix(1 0 0 1 511.632 696)">
   <path d="M23.2689 0.34256Q23.8182 0.731659 24.5247 0.687027Q25.2312 0.642395 26.1856-0.0961304L48.0568-16.0583L69.931-0.0961304Q70.9305 0.642395 71.637 0.687027Q72.3434 0.731659 72.8905 0.34256Q73.4367-0.0473022 73.6126-0.72937Q73.7885-1.41144 73.3704-2.61688L64.9643-28.3211L86.94-44.2238Q87.8944-44.9104 88.1779-45.5822Q88.4613-46.254 88.2416-46.8658Q88.0676-47.5204 87.4413-47.9122Q86.8149-48.304 85.5995-48.304L58.5381-48.2452L50.2045-74.0051Q49.8352-75.1648 49.2992-75.6348Q48.7633-76.1047 48.0568-76.1047Q47.3953-76.1047 46.8609-75.6348Q46.3264-75.1648 45.9541-74.0051L37.6205-48.2452L10.5591-48.304Q9.34753-48.304 8.71925-47.9122Q8.09097-47.5204 7.91702-46.8658Q7.69806-46.254 7.98149-45.5822Q8.26492-44.9104 9.2186-44.2238L31.1943-28.3211L22.7882-2.61688Q22.3701-1.41144 22.546-0.72937Q22.7219-0.0473022 23.2689 0.34256Z"/>
  </g>
 </g>
</svg>
